<mxfile host="app.diagrams.net" modified="2020-12-02T08:37:08.806Z" agent="5.0 (X11; Linux x86_64) AppleWebKit/537.36 (KHTML, like Gecko) Chrome/86.0.4240.111 Safari/537.36" etag="I4Q5IxArE7CJx5vuF1x4" version="13.10.5" type="github">
  <diagram id="yBTbe_Vos1hI_kyanjKP" name="Page-1">
    <mxGraphModel dx="803" dy="465" grid="1" gridSize="10" guides="1" tooltips="1" connect="1" arrows="1" fold="1" page="1" pageScale="1" pageWidth="850" pageHeight="1100" math="0" shadow="0">
      <root>
        <mxCell id="0" />
        <mxCell id="1" parent="0" />
        <mxCell id="3PNLmco4nN2BC5lh6IhK-2" value="" style="rounded=0;whiteSpace=wrap;html=1;rotation=90;fillColor=#e3c800;strokeColor=#B09500;fontColor=#ffffff;" vertex="1" parent="1">
          <mxGeometry x="70" y="130" width="235" height="135" as="geometry" />
        </mxCell>
        <mxCell id="3PNLmco4nN2BC5lh6IhK-3" value="" style="rounded=0;whiteSpace=wrap;html=1;rotation=90;fillColor=#e3c800;strokeColor=#B09500;fontColor=#ffffff;" vertex="1" parent="1">
          <mxGeometry x="430" y="130" width="235" height="135" as="geometry" />
        </mxCell>
        <mxCell id="3PNLmco4nN2BC5lh6IhK-4" value="&lt;b&gt;&lt;font style=&quot;font-size: 15px&quot;&gt;Controller&lt;/font&gt;&lt;/b&gt;" style="text;html=1;strokeColor=none;fillColor=none;align=center;verticalAlign=middle;whiteSpace=wrap;rounded=0;" vertex="1" parent="1">
          <mxGeometry x="166.25" y="160" width="42.5" height="50" as="geometry" />
        </mxCell>
        <mxCell id="3PNLmco4nN2BC5lh6IhK-5" value="&lt;b&gt;&lt;font style=&quot;font-size: 17px&quot;&gt;Compute&lt;/font&gt;&lt;/b&gt;" style="text;html=1;strokeColor=none;fillColor=none;align=center;verticalAlign=middle;whiteSpace=wrap;rounded=0;" vertex="1" parent="1">
          <mxGeometry x="527.5" y="175" width="40" height="20" as="geometry" />
        </mxCell>
        <mxCell id="3PNLmco4nN2BC5lh6IhK-7" value="" style="html=1;outlineConnect=0;fillColor=#6d8764;strokeColor=#3A5431;gradientDirection=north;strokeWidth=2;shape=mxgraph.networks.bus;gradientColor=none;gradientDirection=north;fontColor=#ffffff;perimeter=backbonePerimeter;backboneSize=20;" vertex="1" parent="1">
          <mxGeometry x="60" y="20" width="630" height="20" as="geometry" />
        </mxCell>
        <mxCell id="3PNLmco4nN2BC5lh6IhK-8" value="" style="html=1;outlineConnect=0;fillColor=#e51400;strokeColor=#B20000;gradientDirection=north;strokeWidth=2;shape=mxgraph.networks.bus;gradientColor=none;gradientDirection=north;fontColor=#ffffff;perimeter=backbonePerimeter;backboneSize=20;" vertex="1" parent="1">
          <mxGeometry x="60" y="360" width="630" height="20" as="geometry" />
        </mxCell>
        <mxCell id="3PNLmco4nN2BC5lh6IhK-9" value="ens3" style="rounded=0;whiteSpace=wrap;html=1;fillColor=#6d8764;strokeColor=#3A5431;fontColor=#ffffff;" vertex="1" parent="1">
          <mxGeometry x="162.5" y="80" width="50" height="30" as="geometry" />
        </mxCell>
        <mxCell id="3PNLmco4nN2BC5lh6IhK-10" value="ens3" style="rounded=0;whiteSpace=wrap;html=1;fillColor=#6d8764;strokeColor=#3A5431;fontColor=#ffffff;" vertex="1" parent="1">
          <mxGeometry x="522.5" y="80" width="50" height="30" as="geometry" />
        </mxCell>
        <mxCell id="3PNLmco4nN2BC5lh6IhK-11" value="ens4" style="rounded=0;whiteSpace=wrap;html=1;fillColor=#e51400;strokeColor=#B20000;fontColor=#ffffff;" vertex="1" parent="1">
          <mxGeometry x="162.5" y="290" width="50" height="30" as="geometry" />
        </mxCell>
        <mxCell id="3PNLmco4nN2BC5lh6IhK-12" value="ens4" style="rounded=0;whiteSpace=wrap;html=1;fillColor=#e51400;strokeColor=#B20000;fontColor=#ffffff;" vertex="1" parent="1">
          <mxGeometry x="522.5" y="290" width="50" height="30" as="geometry" />
        </mxCell>
        <mxCell id="3PNLmco4nN2BC5lh6IhK-13" value="" style="html=1;outlineConnect=0;fillColor=#6d8764;strokeColor=#3A5431;gradientDirection=north;strokeWidth=2;shape=mxgraph.networks.bus;gradientColor=none;gradientDirection=north;fontColor=#ffffff;perimeter=backbonePerimeter;backboneSize=20;rotation=90;" vertex="1" parent="1">
          <mxGeometry x="162.5" y="50" width="50" height="20" as="geometry" />
        </mxCell>
        <mxCell id="3PNLmco4nN2BC5lh6IhK-14" value="" style="html=1;outlineConnect=0;fillColor=#6d8764;strokeColor=#3A5431;gradientDirection=north;strokeWidth=2;shape=mxgraph.networks.bus;gradientColor=none;gradientDirection=north;fontColor=#ffffff;perimeter=backbonePerimeter;backboneSize=20;rotation=90;" vertex="1" parent="1">
          <mxGeometry x="522.5" y="50" width="50" height="20" as="geometry" />
        </mxCell>
        <mxCell id="3PNLmco4nN2BC5lh6IhK-15" value="" style="html=1;outlineConnect=0;fillColor=#e51400;strokeColor=#B20000;gradientDirection=north;strokeWidth=2;shape=mxgraph.networks.bus;gradientDirection=north;fontColor=#ffffff;perimeter=backbonePerimeter;backboneSize=20;rotation=90;" vertex="1" parent="1">
          <mxGeometry x="162.5" y="330" width="50" height="20" as="geometry" />
        </mxCell>
        <mxCell id="3PNLmco4nN2BC5lh6IhK-16" value="" style="html=1;outlineConnect=0;fillColor=#e51400;strokeColor=#B20000;gradientDirection=north;strokeWidth=2;shape=mxgraph.networks.bus;gradientDirection=north;fontColor=#ffffff;perimeter=backbonePerimeter;backboneSize=20;rotation=90;" vertex="1" parent="1">
          <mxGeometry x="522.5" y="330" width="50" height="20" as="geometry" />
        </mxCell>
        <mxCell id="3PNLmco4nN2BC5lh6IhK-17" value="192.16.17.0/24" style="text;html=1;strokeColor=#3A5431;fillColor=#6d8764;align=center;verticalAlign=middle;whiteSpace=wrap;rounded=0;fontColor=#ffffff;" vertex="1" parent="1">
          <mxGeometry x="690" y="20" width="120" height="20" as="geometry" />
        </mxCell>
        <mxCell id="3PNLmco4nN2BC5lh6IhK-18" value="10.0.0.0/24" style="text;html=1;strokeColor=#B20000;fillColor=#e51400;align=center;verticalAlign=middle;whiteSpace=wrap;rounded=0;fontColor=#ffffff;" vertex="1" parent="1">
          <mxGeometry x="690" y="360" width="120" height="20" as="geometry" />
        </mxCell>
      </root>
    </mxGraphModel>
  </diagram>
</mxfile>
